<svg width="33" height="45" viewBox="0 0 33 45" fill="none" xmlns="http://www.w3.org/2000/svg">
<g clip-path="url(#clip0_788_3663)">
<path d="M15.4336 14.2718L15.9498 14.685L16.4648 15.0981L16.975 15.5072L17.4759 15.9245L17.9814 16.3459L18.4869 16.7673L18.9925 17.1887L19.498 17.6101L20.0035 18.0315L20.5091 18.4529L21.004 18.8651L21.4776 19.2937L21.9619 19.7326L22.4462 20.1716L22.9305 20.6105L23.4147 21.0494L23.899 21.4883L24.3833 21.9273L24.8664 22.3641L24.9054 22.4023L24.9703 22.4641L25.0471 22.5383L25.1345 22.6238L25.2337 22.7206L25.3436 22.8278L25.4617 22.9442L25.5892 23.0699L25.7251 23.2039L25.8692 23.3461L26.0204 23.4955L26.1775 23.651L26.5094 23.9808L26.8614 24.3321L27.2287 24.6999L27.6043 25.0781L27.9858 25.4645L28.3673 25.8529L28.7418 26.2372L29.1138 26.6205L29.806 27.3459L30.4001 27.9878L30.6482 28.2639L30.6765 28.2959L30.53 28.2495L30.3458 28.1887L30.145 28.1207L29.93 28.0465L29.702 27.9661L29.4623 27.8796L29.2107 27.7879L28.9485 27.6921L28.6756 27.5911L28.3945 27.487L27.8075 27.2676L27.1921 27.0378L26.5543 26.7998L25.9023 26.5577L25.2384 26.3145L24.5687 26.0734L23.9061 25.8426L23.2387 25.6108L22.5974 25.4037L21.9513 25.1955L21.356 25.0266L20.7618 24.8576L20.1996 24.7195L19.674 24.6113L19.1992 24.5371L18.9535 24.5104L18.7255 24.4949L18.5058 24.4918L18.2885 24.5011L18.0688 24.5279L17.8574 24.5763L17.6542 24.6433L17.464 24.7267L17.2892 24.8256L17.1286 24.94L16.9833 25.0729L16.8628 25.2161L16.7636 25.3676L16.6845 25.5283L16.629 25.6891L16.5923 25.8498L16.5723 26.0116L16.5675 26.1909L16.5912 26.4804L16.6573 26.7905L16.7542 27.0945L16.8746 27.3953L17.0176 27.6962L17.177 27.9929L17.3483 28.2855L17.5302 28.574L17.718 28.8543L17.9082 29.1263L18.0983 29.387L18.2838 29.6332L18.4609 29.864L18.6263 30.0763L18.7751 30.2659L18.9062 30.4318L19.0114 30.5667L19.0881 30.6698L19.5122 31.255L19.9398 31.8444L20.3791 32.4358L20.8185 33.0282L21.2697 33.6207L21.7209 34.2131L22.1828 34.8046L22.6446 35.397L23.1171 35.9864L23.5895 36.5757L24.0726 37.161L24.5557 37.7462L25.0471 38.3253L25.5396 38.9053L26.0404 39.4772L26.5413 40.0501L27.0515 40.6126L27.5618 41.1752L28.0791 41.7275L28.5965 42.2808L29.1209 42.8207L29.6465 43.3616L29.9087 43.6202H29.7717L29.5497 43.612L29.3064 43.5976L29.0394 43.5759L28.7524 43.5471L28.4429 43.51L28.0874 43.4626L27.6811 43.4234L27.1814 43.3884L26.6476 43.3358L26.4101 43.3018L26.1857 43.2596L25.9755 43.204L25.9082 43.1823L25.8408 43.1566L25.7865 43.1308L25.7463 43.1092L25.7251 43.0947L25.6837 43.0577C25.3991 42.8093 24.9384 42.8093 24.6538 43.0577C24.3691 43.306 24.3691 43.7078 24.6538 43.9561L24.7577 44.0458L24.903 44.1467L25.0506 44.2292L25.2006 44.2992L25.3554 44.359L25.5243 44.4136L25.8184 44.4909L26.1338 44.5517L26.455 44.598L27.0338 44.6578L27.5382 44.6949L27.889 44.7299L28.2232 44.7763L28.5587 44.8185L28.8741 44.8536L29.1741 44.8814L29.4575 44.9009L29.7233 44.9123L29.9761 44.9164L30.217 44.9123L30.4438 44.8989L30.6611 44.8773L30.8702 44.8453L31.0686 44.802L31.26 44.7474L31.4454 44.6774L31.6179 44.5939L31.7797 44.496L31.9297 44.3806L32.0833 44.2271L32.2616 43.9798L32.3927 43.6831L32.4624 43.3905L32.4943 43.1009L32.499 42.8073L32.4872 42.5105L32.466 42.2076L32.4412 41.8954L32.4163 41.5719L32.3974 41.2391L32.3892 40.896L32.3963 40.5405L32.4211 40.1747L32.4695 39.7997L32.5522 39.3906C32.6254 39.0259 32.3443 38.6776 31.9262 38.6148C31.508 38.5509 31.1088 38.7961 31.0368 39.1609L30.9482 39.6091L30.8903 40.0614L30.8619 40.4911L30.8549 40.9011L30.8655 41.2896L30.8879 41.6523L30.9151 41.9902L30.9434 42.3004L30.9659 42.5796L30.9694 42.6465L30.8029 42.4827L30.2879 41.9521L29.7717 41.4215L29.2627 40.8785L28.7536 40.3344L28.2516 39.7801L27.7496 39.2258L27.2559 38.6622L26.7621 38.0986L26.2767 37.5267L25.7912 36.9549L25.314 36.3769L24.8368 35.7999L24.3703 35.2177L23.9025 34.6356L23.4454 34.0504L22.9883 33.4651L22.5418 32.8788L22.0954 32.2926L21.6607 31.7073L21.2249 31.1221L20.802 30.5389L20.3756 29.9516L20.2823 29.8259L20.1665 29.6765L20.0331 29.5075L19.8854 29.32L19.7248 29.115L19.5547 28.8945L19.3799 28.6616L19.2027 28.4195L19.0267 28.1691L18.8554 27.9146L18.6936 27.6591L18.5448 27.4046L18.4102 27.1553L18.2968 26.9172L18.2058 26.6916L18.1385 26.4845L18.0995 26.3063L18.0865 26.1362L18.0889 26.0961L18.0948 26.0487L18.1042 26.0085L18.1137 25.9776L18.1231 25.958L18.1349 25.9415L18.1468 25.9271L18.1597 25.9158L18.1834 25.8993L18.2164 25.8797L18.2613 25.8601L18.3227 25.8395L18.3605 25.8302L18.4243 25.823L18.5235 25.8189L18.6487 25.821L18.7964 25.8313L18.9547 25.8477L19.361 25.9096L19.8146 26.0033L20.3165 26.1259L20.8835 26.2856L21.4481 26.4453L22.067 26.6442L22.6907 26.8451L23.3403 27.0708L23.9947 27.2974L24.6526 27.5334L25.3093 27.7724L25.9578 28.0115L26.5932 28.2474L27.2086 28.4762L27.7968 28.6946L28.0815 28.7997L28.3567 28.9007L28.6236 28.9975L28.8811 29.0903L29.128 29.1789L29.3642 29.2613L29.5898 29.3386L29.8036 29.4107L30.0044 29.4756L30.1946 29.5354L30.3729 29.5879L30.5336 29.6322L30.6375 29.659L30.7615 29.6889L30.9056 29.7177L31.0698 29.7425L31.2576 29.7579L31.4643 29.7559L31.6958 29.7249L31.9557 29.6425L32.2061 29.4952L32.414 29.2829L32.5498 29.0253L32.6053 28.7873L32.5829 28.5019L32.5238 28.3587L32.4636 28.2536L32.3986 28.1568L32.3254 28.0568L32.2404 27.9466L32.0549 27.7209L31.8258 27.4582L31.56 27.1625L30.9529 26.5082L30.2501 25.7746L29.8709 25.3862L29.493 24.9998L29.1067 24.6082L28.7217 24.2198L28.3425 23.8396L27.9728 23.4707L27.6185 23.1184L27.2842 22.7876L27.1248 22.63L26.9724 22.4795L26.8271 22.3374L26.6901 22.2024L26.5613 22.0756L26.442 21.9582L26.331 21.85L26.2306 21.7521L26.1408 21.6656L26.0617 21.5893L25.9944 21.5244L25.9282 21.4616L25.4416 21.0226L24.9573 20.5847L24.473 20.1468L23.9888 19.7089L23.5045 19.271L23.019 18.8331L22.5348 18.3952L22.0387 17.9481L21.5213 17.5184L21.0146 17.098L20.5079 16.6776L20.0012 16.2573L19.4945 15.8369L18.9877 15.4165L18.481 14.9961L17.9696 14.5716L17.4487 14.1543L16.9325 13.7412L16.4164 13.329L15.9002 12.9169L15.384 12.5047L14.8679 12.0926L14.3517 11.6794L13.8355 11.2663L13.3182 10.8541L12.802 10.442L12.2858 10.0298L11.7708 9.61873L11.2582 9.20556L10.7444 8.79136L10.2306 8.37716L9.72035 7.96502L9.21482 7.54876L8.70692 7.13044L8.19902 6.71212L7.69348 6.29586L7.19385 5.87547L6.69422 5.45509L6.19931 5.03059L5.70441 4.60609L5.21541 4.17746L4.72641 3.74883L4.24331 3.31609L3.76022 2.88334L3.28421 2.44544L2.8082 2.00755L2.34046 1.5645L1.87745 1.11939C1.6046 0.860768 1.14395 0.844283 0.848658 1.08229C0.552187 1.3203 0.533288 1.72214 0.806136 1.97973L1.27742 2.4269L1.75225 2.87716L2.23534 3.32124L2.71843 3.76532L3.20743 4.20425L3.69644 4.64215L4.19134 5.07592L4.68625 5.5097L5.18706 5.93936L5.68669 6.36798L6.19105 6.79248L6.69658 7.21802L7.20684 7.63943L7.71474 8.05775L8.22264 8.47607L8.7329 8.89749L9.24907 9.31375L9.76287 9.72795L10.2767 10.1421L10.7917 10.5574L11.309 10.9705L11.8252 11.3827L12.3413 11.7948L12.8575 12.207L13.3725 12.6201L13.8875 13.0333L14.4025 13.4465L14.9175 13.8596L15.4336 14.2728V14.2718Z" fill="#0A3D2A"/>
</g>
<defs>
<clipPath id="clip0_788_3663">
<rect width="32" height="44" fill="white" transform="translate(0.613281 0.914062)"/>
</clipPath>
</defs>
</svg>
